<?xml version="1.0" encoding="UTF-8"?>
<svg id="Capa_1" data-name="Capa 1" xmlns="http://www.w3.org/2000/svg" viewBox="0 0 120 120">
  <defs>
    <style>
      .cls-1 {
        fill: #d7fe91;
        fill-rule: evenodd;
      }
    </style>
  </defs>
  <path class="cls-1" d="M1.05,1.05h7.37v110.54h110.54v7.37H1.05V1.05ZM74.74,26.84c0-2.03,1.65-3.68,3.68-3.68h29.48c2.03,0,3.68,1.65,3.68,3.68v29.48c0,2.03-1.65,3.68-3.68,3.68s-3.68-1.65-3.68-3.68v-19.16l-26.62,32.55c-1.29,1.57-3.61,1.8-5.19.52-.09-.08-.18-.16-.27-.24l-19.06-19.06-26.94,37.04c-1.26,1.6-3.57,1.88-5.17.62-1.52-1.19-1.86-3.35-.78-4.95l29.48-40.53c1.2-1.65,3.5-2.01,5.15-.82.16.11.3.24.44.38l19.23,19.23,25.66-31.36h-21.7c-2.03,0-3.68-1.65-3.68-3.68"/>
</svg>