<?xml version="1.0" encoding="UTF-8"?>
<svg id="Capa_1" data-name="Capa 1" xmlns="http://www.w3.org/2000/svg" viewBox="0 0 120 120">
  <defs>
    <style>
      .cls-1 {
        fill: #d7fe91;
      }
    </style>
  </defs>
  <path class="cls-1" d="M81.11,53.68c1.45,1.44,1.45,3.78,0,5.23,0,0,0,0,0,0l-22.19,22.19c-1.44,1.45-3.78,1.45-5.23,0,0,0,0,0,0,0l-11.1-11.1c-1.45-1.45-1.45-3.79,0-5.24s3.79-1.45,5.24,0l8.48,8.48,19.57-19.58c1.44-1.45,3.78-1.45,5.23,0,0,0,0,0,0,0"/>
  <path class="cls-1" d="M26.71.82c2.04,0,3.7,1.66,3.7,3.7v3.7h59.18v-3.7c0-2.04,1.66-3.7,3.7-3.7s3.7,1.66,3.7,3.7v3.7h7.4c8.17,0,14.79,6.62,14.79,14.79v81.37c0,8.17-6.62,14.79-14.79,14.79H15.62c-8.17,0-14.79-6.62-14.79-14.79V23.01c0-8.17,6.62-14.79,14.79-14.79h7.4v-3.7c0-2.04,1.66-3.7,3.7-3.7M8.22,30.41v73.97c0,4.09,3.31,7.4,7.4,7.4h88.77c4.09,0,7.4-3.31,7.4-7.4V30.41H8.22Z"/>
</svg>