<?xml version="1.0" encoding="UTF-8"?>
<svg id="Capa_1" data-name="Capa 1" xmlns="http://www.w3.org/2000/svg" viewBox="0 0 120 120">
  <defs>
    <style>
      .cls-1 {
        fill: #d7fe91;
      }
    </style>
  </defs>
  <path class="cls-1" d="M60,36.18c-13.16,0-23.82,10.67-23.82,23.82s10.67,23.82,23.82,23.82,23.82-10.67,23.82-23.82-10.67-23.82-23.82-23.82M43.52,60c0-9.1,7.38-16.48,16.48-16.48s16.48,7.38,16.48,16.48-7.38,16.48-16.48,16.48-16.48-7.38-16.48-16.48"/>
  <path class="cls-1" d="M73.18,11.14c-3.87-13.14-22.49-13.14-26.36,0l-.69,2.34c-1,3.39-4.56,5.34-7.96,4.34-.44-.13-.86-.3-1.25-.52l-2.14-1.17c-12.04-6.55-25.19,6.62-18.64,18.65l1.17,2.14c1.69,3.11.55,7-2.56,8.69-.4.22-.82.39-1.25.52l-2.34.69c-13.14,3.87-13.14,22.49,0,26.36l2.34.69c3.39,1,5.34,4.56,4.34,7.96-.13.44-.3.86-.52,1.25l-1.17,2.14c-6.55,12.04,6.61,25.2,18.65,18.64l2.14-1.17c3.11-1.69,7-.55,8.69,2.56.22.4.39.82.52,1.25l.69,2.34c3.87,13.14,22.49,13.14,26.36,0l.69-2.34c1-3.39,4.56-5.34,7.96-4.34.44.13.86.3,1.25.52l2.14,1.17c12.04,6.55,25.2-6.62,18.64-18.65l-1.17-2.14c-1.69-3.11-.55-7,2.56-8.69.4-.22.82-.39,1.25-.52l2.34-.69c13.14-3.87,13.14-22.49,0-26.36l-2.34-.69c-3.39-1-5.34-4.56-4.34-7.96.13-.44.3-.86.52-1.25l1.17-2.14c6.55-12.04-6.62-25.19-18.65-18.64l-2.14,1.17c-3.11,1.69-7,.55-8.69-2.56-.22-.4-.39-.82-.52-1.25l-.69-2.34ZM53.86,13.22c1.81-6.13,10.48-6.13,12.29,0l.69,2.34c2.15,7.28,9.79,11.45,17.07,9.3.93-.28,1.84-.65,2.69-1.12l2.14-1.17c5.61-3.05,11.74,3.08,8.69,8.7l-1.17,2.14c-3.63,6.67-1.16,15.02,5.5,18.64.85.46,1.75.84,2.69,1.11l2.33.69c6.13,1.81,6.13,10.48,0,12.29l-2.34.69c-7.28,2.15-11.45,9.79-9.3,17.07.28.93.65,1.84,1.12,2.69l1.17,2.14c3.05,5.61-3.08,11.74-8.7,8.69l-2.14-1.17c-6.67-3.63-15.01-1.17-18.65,5.49-.47.86-.84,1.76-1.12,2.7l-.69,2.33c-1.81,6.13-10.48,6.13-12.29,0l-.69-2.34c-2.15-7.28-9.79-11.44-17.07-9.29-.93.27-1.83.65-2.68,1.11l-2.14,1.17c-5.61,3.05-11.74-3.08-8.69-8.7l1.17-2.14c3.64-6.66,1.18-15.01-5.48-18.65-.86-.47-1.76-.84-2.7-1.12l-2.34-.69c-6.13-1.81-6.13-10.48,0-12.29l2.34-.69c7.28-2.15,11.44-9.8,9.29-17.08-.27-.93-.64-1.82-1.11-2.67l-1.17-2.14c-3.05-5.61,3.08-11.74,8.7-8.69l2.14,1.17c6.67,3.63,15.02,1.17,18.65-5.5.46-.85.84-1.75,1.11-2.68l.69-2.34Z"/>
</svg>