<?xml version="1.0" encoding="UTF-8"?>
<svg id="Capa_1" data-name="Capa 1" xmlns="http://www.w3.org/2000/svg" viewBox="0 0 120 120">
  <defs>
    <style>
      .cls-1 {
        fill: #d7fe91;
      }
    </style>
  </defs>
  <path class="cls-1" d="M41.94,70.91c.55,6.89,5.99,12.26,15.76,12.89v5.08h4.33v-5.12c10.11-.71,16.02-6.11,16.02-13.95,0-7.13-4.52-10.8-12.6-12.71l-3.42-.81v-13.85c4.33.49,7.09,2.86,7.76,6.14h7.6c-.55-6.64-6.24-11.83-15.35-12.39v-5.08h-4.33v5.19c-8.63.85-14.52,6.04-14.52,13.38,0,6.5,4.38,10.63,11.65,12.33l2.87.71v14.69c-4.44-.67-7.38-3.11-8.05-6.5h-7.71ZM57.67,55.27c-4.26-.99-6.57-3-6.57-6.04,0-3.39,2.49-5.94,6.61-6.68v12.71h-.04ZM62.67,63.89c5.18,1.2,7.57,3.14,7.57,6.57,0,3.91-2.98,6.6-8.2,7.09v-13.81l.63.14Z"/>
  <path class="cls-1" d="M60,110.56c-27.92,0-50.56-22.64-50.56-50.56S32.08,9.44,60,9.44s50.56,22.64,50.56,50.56-22.64,50.56-50.56,50.56M60,117.78c31.91,0,57.78-25.87,57.78-57.78S91.91,2.22,60,2.22,2.22,28.09,2.22,60s25.87,57.78,57.78,57.78"/>
  <path class="cls-1" d="M60,99.72c-21.94,0-39.72-17.78-39.72-39.72S38.06,20.28,60,20.28s39.72,17.78,39.72,39.72-17.78,39.72-39.72,39.72M60,103.33c23.93,0,43.33-19.4,43.33-43.33s-19.4-43.33-43.33-43.33S16.67,36.07,16.67,60s19.4,43.33,43.33,43.33"/>
</svg>