<?xml version="1.0" encoding="UTF-8"?>
<svg id="Capa_1" data-name="Capa 1" xmlns="http://www.w3.org/2000/svg" viewBox="0 0 120 120">
  <defs>
    <style>
      .cls-1 {
        fill: #d7fe91;
      }
    </style>
  </defs>
  <path class="cls-1" d="M90.43,6.18c5.91-1.48,11.91,2.12,13.39,8.03.22.87.33,1.77.33,2.67v8.98h3.68c6.1,0,11.04,4.94,11.04,11.04v66.23c0,6.1-4.94,11.04-11.04,11.04H12.17c-6.1,0-11.04-4.94-11.04-11.04V36.89c0-5.9,4.64-10.76,10.54-11.03L90.43,6.18ZM42.06,25.85h54.73v-8.98c0-2.03-1.66-3.68-3.69-3.67-.3,0-.59.04-.88.11l-50.16,12.54ZM12.17,33.21c-2.03,0-3.68,1.65-3.68,3.68v66.23c0,2.03,1.65,3.68,3.68,3.68h95.66c2.03,0,3.68-1.65,3.68-3.68V36.89c0-2.03-1.65-3.68-3.68-3.68H12.17Z"/>
</svg>