<?xml version="1.0" encoding="UTF-8"?>
<svg id="Capa_1" data-name="Capa 1" xmlns="http://www.w3.org/2000/svg" viewBox="0 0 1377.79 361.32">
  <defs>
    <style>
      .cls-1 {
        fill: #d7fe91;
      }
    </style>
  </defs>
  <g>
    <path class="cls-1" d="M152.12,346.93v-81.91H5.15v-41.19L158.68,10.86h35.57v217.42h49.38v36.74h-49.38v81.91h-42.13ZM151.42,228.28V76.06L44,228.28h107.42Z"/>
    <path class="cls-1" d="M278.93,295.92h48.91v51.02h-48.91v-51.02Z"/>
    <path class="cls-1" d="M395.21,150.81c-12.33-12.48-18.49-28.71-18.49-48.68,0-24.96,9.04-46.42,27.12-64.36,18.08-17.94,43.72-26.91,76.91-26.91s57.27,8.47,75.51,25.39c18.23,16.93,27.35,36.71,27.35,59.33,0,20.91-5.3,37.84-15.9,50.78-5.93,7.34-15.13,14.51-27.6,21.53,13.94,6.4,24.9,13.73,32.89,22,14.88,15.6,22.32,35.89,22.32,60.85,0,29.49-9.91,54.49-29.72,75.01-19.82,20.52-47.82,30.78-84.02,30.78-32.61,0-60.19-8.86-82.73-26.56-22.55-17.71-33.82-43.41-33.82-77.11,0-19.81,4.83-36.94,14.51-51.37,9.67-14.43,24.03-25.47,43.06-33.12-11.7-4.99-20.83-10.84-27.38-17.55ZM531.07,302.35c12.87-10.53,19.31-26.25,19.31-47.16s-6.63-38.15-19.89-49.38c-13.26-11.23-30.27-16.85-51.02-16.85s-36.55,5.73-49.26,17.2c-12.72,11.47-19.07,27.35-19.07,47.63,0,17.48,5.81,32.57,17.44,45.29,11.62,12.72,29.61,19.07,53.95,19.07,19.5,0,35.69-5.27,48.56-15.8ZM523.26,136.62c10.43-10.4,15.65-22.79,15.65-37.18,0-12.51-4.98-24-14.95-34.48-9.97-10.48-25.15-15.72-45.55-15.72s-34.88,5.24-43.91,15.72c-9.03,10.48-13.54,22.76-13.54,36.83,0,15.79,5.84,28.15,17.52,37.06,11.68,8.91,25.46,13.37,41.34,13.37,18.53,0,33.01-5.2,43.44-15.6Z"/>
    <path class="cls-1" d="M703.75,3.14h35.58l-109.06,343.8h-35.58L703.75,3.14Z"/>
    <path class="cls-1" d="M765.38,261.51c2.81,24.03,13.96,40.65,33.47,49.85,9.98,4.68,21.53,7.02,34.64,7.02,24.96,0,43.45-7.96,55.47-23.87,12.01-15.91,18.02-33.54,18.02-52.89,0-23.4-7.14-41.5-21.41-54.3-14.28-12.79-31.4-19.19-51.37-19.19-14.51,0-26.95,2.81-37.33,8.43-10.38,5.62-19.23,13.42-26.56,23.4l-36.51-2.11,25.52-180.44h174.11v40.72h-142.53l-14.28,93.15c7.8-5.93,15.21-10.37,22.23-13.34,12.48-5.15,26.91-7.72,43.3-7.72,30.73,0,56.79,9.91,78.17,29.72,21.37,19.82,32.06,44.93,32.06,75.36s-9.79,59.6-29.37,83.78c-19.58,24.19-50.83,36.28-93.73,36.28-27.31,0-51.45-7.69-72.43-23.05-20.99-15.37-32.73-38.97-35.22-70.8h43.77Z"/>
  </g>
  <path class="cls-1" d="M1063.15,339.98c-1.82,10.38,8.42,18.49,17.44,13.86l102.62-52.74,102.6,52.74c9.02,4.63,19.26-3.48,17.44-13.84l-19.4-110.57,82.33-78.45c7.71-7.34,3.74-20.76-6.59-22.21l-114.5-16.27-51.05-101.15c-2.84-5.98-9.99-8.53-15.97-5.7-2.5,1.19-4.51,3.2-5.7,5.7l-51.05,101.17-114.5,16.27c-10.31,1.45-14.31,14.87-6.62,22.21l82.36,78.45-19.4,110.57v-.05ZM1177.81,275.3l-86.17,44.28,16.22-92.5c.79-4.33-.64-8.76-3.81-11.81l-67.93-64.75,94.72-13.47c3.97-.62,7.4-3.13,9.19-6.73l43.13-85.51,43.18,85.51c1.79,3.6,5.21,6.11,9.19,6.73l94.72,13.44-67.93,64.75c-3.18,3.05-4.61,7.5-3.81,11.83l16.22,92.5-86.17-44.28c-3.38-1.75-7.4-1.75-10.78,0h.02Z"/>
</svg>