<?xml version="1.0" encoding="UTF-8"?>
<svg id="Capa_1" data-name="Capa 1" xmlns="http://www.w3.org/2000/svg" viewBox="0 0 943.53 401.15">
  <defs>
    <style>
      .cls-1 {
        fill: #d7fe91;
      }
    </style>
  </defs>
  <g>
    <path class="cls-1" d="M110.19,313.39v-55.3H10.97v-27.81L114.62,86.5h24.02v146.79h33.34v24.81h-33.34v55.3h-28.44ZM109.72,233.28v-102.77l-72.52,102.77h72.52Z"/>
    <path class="cls-1" d="M195.8,278.94h33.02v34.44h-33.02v-34.44Z"/>
    <path class="cls-1" d="M274.31,180.98c-8.32-8.43-12.48-19.38-12.48-32.86,0-16.85,6.1-31.34,18.31-43.45,12.21-12.11,29.51-18.17,51.93-18.17s38.67,5.72,50.98,17.14c12.31,11.43,18.47,24.78,18.47,40.05,0,14.12-3.58,25.54-10.74,34.29-4,4.95-10.21,9.8-18.63,14.54,9.41,4.32,16.81,9.27,22.2,14.85,10.04,10.53,15.07,24.23,15.07,41.08,0,19.91-6.69,36.79-20.07,50.64-13.38,13.85-32.29,20.78-56.72,20.78-22.02,0-40.63-5.98-55.85-17.93-15.22-11.95-22.83-29.31-22.83-52.06,0-13.38,3.26-24.94,9.79-34.68,6.53-9.74,16.22-17.2,29.07-22.36-7.9-3.37-14.06-7.32-18.48-11.85ZM366.03,283.29c8.69-7.11,13.03-17.72,13.03-31.84s-4.48-25.75-13.43-33.34c-8.95-7.58-20.44-11.38-34.45-11.38s-24.68,3.87-33.26,11.61c-8.59,7.74-12.88,18.46-12.88,32.15,0,11.8,3.92,21.99,11.77,30.57,7.85,8.59,19.99,12.88,36.42,12.88,13.17,0,24.1-3.56,32.79-10.67ZM360.76,171.4c7.04-7.02,10.57-15.39,10.57-25.1,0-8.44-3.36-16.2-10.09-23.28-6.73-7.07-16.98-10.61-30.75-10.61s-23.55,3.54-29.65,10.61c-6.1,7.08-9.14,15.36-9.14,24.86,0,10.66,3.94,19,11.83,25.02,7.89,6.02,17.19,9.03,27.91,9.03,12.51,0,22.29-3.51,29.33-10.53Z"/>
    <path class="cls-1" d="M482.61,81.28h24.02l-73.63,232.11h-24.02l73.63-232.11Z"/>
    <path class="cls-1" d="M524.22,255.72c1.9,16.22,9.43,27.44,22.59,33.65,6.74,3.16,14.54,4.74,23.38,4.74,16.85,0,29.33-5.37,37.45-16.12,8.11-10.74,12.17-22.65,12.17-35.71,0-15.8-4.82-28.02-14.46-36.66-9.64-8.64-21.2-12.96-34.68-12.96-9.8,0-18.2,1.9-25.2,5.69-7.01,3.79-12.98,9.06-17.93,15.8l-24.65-1.42,17.23-121.82h117.55v27.49h-96.22l-9.64,62.89c5.27-4,10.27-7,15.01-9.01,8.43-3.48,18.17-5.21,29.23-5.21,20.75,0,38.34,6.69,52.77,20.07,14.43,13.38,21.65,30.34,21.65,50.88s-6.61,40.24-19.83,56.57c-13.22,16.33-34.31,24.49-63.28,24.49-18.44,0-34.74-5.19-48.9-15.56-14.17-10.37-22.1-26.31-23.78-47.8h29.55Z"/>
  </g>
  <path class="cls-1" d="M725.25,308.69c-1.23,7.01,5.68,12.48,11.77,9.36l69.28-35.61,69.27,35.61c6.09,3.12,13-2.35,11.77-9.34l-13.1-74.65,55.59-52.97c5.21-4.96,2.53-14.01-4.45-14.99l-77.3-10.98-34.47-68.29c-1.92-4.04-6.74-5.76-10.78-3.85-1.69.8-3.05,2.16-3.85,3.85l-34.47,68.31-77.3,10.98c-6.96.98-9.66,10.04-4.47,14.99l55.6,52.97-13.1,74.65v-.03ZM802.66,265.02l-58.17,29.89,10.95-62.45c.54-2.92-.43-5.91-2.57-7.97l-45.86-43.72,63.95-9.09c2.68-.42,5-2.11,6.2-4.55l29.12-57.73,29.15,57.73c1.21,2.43,3.52,4.13,6.2,4.55l63.95,9.07-45.86,43.72c-2.15,2.06-3.11,5.06-2.57,7.99l10.95,62.45-58.17-29.89c-2.28-1.18-5-1.18-7.28,0h.02Z"/>
</svg>