<?xml version="1.0" encoding="UTF-8"?>
<svg id="Capa_1" data-name="Capa 1" xmlns="http://www.w3.org/2000/svg" viewBox="0 0 943.53 401.15">
  <defs>
    <style>
      .cls-1 {
        fill: #d7fe91;
      }
    </style>
  </defs>
  <path class="cls-1" d="M247.04,247.74v-26.63h69.12v-69.6h27.11v69.6h69.12v26.63h-69.12v69.44h-27.11v-69.44h-69.12Z"/>
  <g>
    <path class="cls-1" d="M432.28,152.85v-21.88c20.61-2.01,34.98-5.36,43.12-10.07,8.14-4.7,14.21-15.83,18.23-33.37h22.51v226.08h-30.44v-160.76h-53.43Z"/>
    <path class="cls-1" d="M681.27,120.27c10.15,18.71,15.22,44.34,15.22,76.89,0,30.86-4.6,56.39-13.79,76.58-13.32,28.96-35.09,43.44-65.32,43.44-27.27,0-47.56-11.84-60.88-35.51-11.1-19.76-16.65-46.29-16.65-79.59,0-25.79,3.33-47.93,9.99-66.43,12.47-34.46,35.04-51.68,67.7-51.68,29.38,0,50.63,12.1,63.73,36.31ZM652.55,271.52c8.79-13.1,13.18-37.52,13.18-73.25,0-25.79-3.18-47.01-9.53-63.65-6.35-16.65-18.69-24.97-37-24.97-16.83,0-29.14,7.9-36.92,23.7-7.78,15.8-11.67,39.08-11.67,69.84,0,23.15,2.49,41.75,7.46,55.81,7.62,21.46,20.64,32.18,39.07,32.18,14.82,0,26.62-6.55,35.41-19.66Z"/>
  </g>
</svg>