<?xml version="1.0" encoding="UTF-8"?>
<svg id="Capa_1" data-name="Capa 1" xmlns="http://www.w3.org/2000/svg" viewBox="0 0 680.38 361.32">
  <defs>
    <style>
      .cls-1 {
        fill: #d7fe91;
      }
    </style>
  </defs>
  <path class="cls-1" d="M6.54,251.25v-39.45h102.39v-103.09h40.16v103.09h102.39v39.45h-102.39v102.86h-40.16v-102.86H6.54Z"/>
  <g>
    <path class="cls-1" d="M280.93,110.7v-32.41c30.53-2.97,51.82-7.94,63.87-14.91,12.05-6.96,21.05-23.44,27.01-49.43h33.35v334.87h-45.09V110.7h-79.14Z"/>
    <path class="cls-1" d="M649.72,62.45c15.03,27.71,22.54,65.68,22.54,113.89,0,45.71-6.81,83.52-20.43,113.42-19.73,42.9-51.98,64.34-96.75,64.34-40.39,0-70.45-17.53-90.17-52.6-16.44-29.27-24.66-68.57-24.66-117.88,0-38.2,4.93-71,14.79-98.39,18.47-51.04,51.9-76.55,100.27-76.55,43.52,0,74.99,17.93,94.4,53.78ZM607.19,286.47c13.01-19.41,19.52-55.57,19.52-108.49,0-38.2-4.71-69.63-14.12-94.28-9.41-24.66-27.68-36.99-54.8-36.99-24.94,0-43.16,11.7-54.69,35.11-11.53,23.41-17.29,57.89-17.29,103.44,0,34.29,3.68,61.84,11.06,82.66,11.29,31.78,30.58,47.67,57.86,47.67,21.95,0,39.44-9.71,52.46-29.12Z"/>
  </g>
</svg>